<mxfile host="app.diagrams.net" agent="Mozilla/5.0 (Windows NT 10.0; Win64; x64) AppleWebKit/537.36 (KHTML, like Gecko) Chrome/135.0.0.0 Safari/537.36" version="26.2.9">
  <diagram name="Página-1" id="etKGzabOYZ8_8JmHZPXm">
    <mxGraphModel dx="2255" dy="743" grid="1" gridSize="10" guides="1" tooltips="1" connect="1" arrows="1" fold="1" page="1" pageScale="1" pageWidth="827" pageHeight="1169" math="0" shadow="0">
      <root>
        <mxCell id="0" />
        <mxCell id="1" parent="0" />
        <mxCell id="yHC9XpJHPRP4eeNgV91K-38" style="edgeStyle=orthogonalEdgeStyle;rounded=0;orthogonalLoop=1;jettySize=auto;html=1;exitX=1;exitY=1;exitDx=0;exitDy=0;" edge="1" parent="1" source="yHC9XpJHPRP4eeNgV91K-6" target="yHC9XpJHPRP4eeNgV91K-10">
          <mxGeometry relative="1" as="geometry" />
        </mxCell>
        <mxCell id="yHC9XpJHPRP4eeNgV91K-39" style="edgeStyle=orthogonalEdgeStyle;rounded=0;orthogonalLoop=1;jettySize=auto;html=1;exitX=0.75;exitY=1;exitDx=0;exitDy=0;entryX=0.75;entryY=0;entryDx=0;entryDy=0;" edge="1" parent="1" source="yHC9XpJHPRP4eeNgV91K-6" target="yHC9XpJHPRP4eeNgV91K-18">
          <mxGeometry relative="1" as="geometry" />
        </mxCell>
        <mxCell id="yHC9XpJHPRP4eeNgV91K-40" style="edgeStyle=orthogonalEdgeStyle;rounded=0;orthogonalLoop=1;jettySize=auto;html=1;exitX=0.5;exitY=1;exitDx=0;exitDy=0;entryX=0.75;entryY=0;entryDx=0;entryDy=0;" edge="1" parent="1" source="yHC9XpJHPRP4eeNgV91K-6" target="yHC9XpJHPRP4eeNgV91K-14">
          <mxGeometry relative="1" as="geometry" />
        </mxCell>
        <mxCell id="yHC9XpJHPRP4eeNgV91K-56" style="edgeStyle=orthogonalEdgeStyle;rounded=0;orthogonalLoop=1;jettySize=auto;html=1;exitX=0.25;exitY=1;exitDx=0;exitDy=0;entryX=1;entryY=0.75;entryDx=0;entryDy=0;" edge="1" parent="1" source="yHC9XpJHPRP4eeNgV91K-6" target="yHC9XpJHPRP4eeNgV91K-52">
          <mxGeometry relative="1" as="geometry">
            <Array as="points">
              <mxPoint x="425" y="520" />
              <mxPoint x="300" y="520" />
              <mxPoint x="300" y="570" />
            </Array>
          </mxGeometry>
        </mxCell>
        <mxCell id="yHC9XpJHPRP4eeNgV91K-57" style="edgeStyle=orthogonalEdgeStyle;rounded=0;orthogonalLoop=1;jettySize=auto;html=1;exitX=0;exitY=1;exitDx=0;exitDy=0;" edge="1" parent="1" source="yHC9XpJHPRP4eeNgV91K-6" target="yHC9XpJHPRP4eeNgV91K-49">
          <mxGeometry relative="1" as="geometry" />
        </mxCell>
        <mxCell id="yHC9XpJHPRP4eeNgV91K-6" value="Produto" style="swimlane;fontStyle=1;align=center;verticalAlign=top;childLayout=stackLayout;horizontal=1;startSize=26;horizontalStack=0;resizeParent=1;resizeParentMax=0;resizeLast=0;collapsible=1;marginBottom=0;whiteSpace=wrap;html=1;" vertex="1" parent="1">
          <mxGeometry x="370" y="320" width="220" height="158" as="geometry" />
        </mxCell>
        <mxCell id="yHC9XpJHPRP4eeNgV91K-7" value="+codigoBarra:string&lt;div&gt;+nome:string&lt;/div&gt;&lt;div&gt;+categoria:categoria&lt;/div&gt;&lt;div&gt;+quantidadeEstoque:double&lt;/div&gt;&lt;div&gt;+tipoUnidade:tipoUnidade&lt;/div&gt;&lt;div&gt;+tamanhoUnidade:float&lt;/div&gt;&lt;div&gt;+valor:float&lt;/div&gt;" style="text;strokeColor=none;fillColor=none;align=left;verticalAlign=top;spacingLeft=4;spacingRight=4;overflow=hidden;rotatable=0;points=[[0,0.5],[1,0.5]];portConstraint=eastwest;whiteSpace=wrap;html=1;" vertex="1" parent="yHC9XpJHPRP4eeNgV91K-6">
          <mxGeometry y="26" width="220" height="124" as="geometry" />
        </mxCell>
        <mxCell id="yHC9XpJHPRP4eeNgV91K-8" value="" style="line;strokeWidth=1;fillColor=none;align=left;verticalAlign=middle;spacingTop=-1;spacingLeft=3;spacingRight=3;rotatable=0;labelPosition=right;points=[];portConstraint=eastwest;strokeColor=inherit;" vertex="1" parent="yHC9XpJHPRP4eeNgV91K-6">
          <mxGeometry y="150" width="220" height="8" as="geometry" />
        </mxCell>
        <mxCell id="yHC9XpJHPRP4eeNgV91K-10" value="EstoqueSaida" style="swimlane;fontStyle=1;align=center;verticalAlign=top;childLayout=stackLayout;horizontal=1;startSize=26;horizontalStack=0;resizeParent=1;resizeParentMax=0;resizeLast=0;collapsible=1;marginBottom=0;whiteSpace=wrap;html=1;" vertex="1" parent="1">
          <mxGeometry x="610" y="521" width="160" height="128" as="geometry" />
        </mxCell>
        <mxCell id="yHC9XpJHPRP4eeNgV91K-11" value="+produto:produto&lt;div&gt;+justificativa:string&lt;/div&gt;&lt;div&gt;+data:dataTime&lt;/div&gt;&lt;div&gt;+voltouEstoque:boolean&lt;/div&gt;&lt;div&gt;+usuario:usuario&lt;/div&gt;" style="text;strokeColor=none;fillColor=none;align=left;verticalAlign=top;spacingLeft=4;spacingRight=4;overflow=hidden;rotatable=0;points=[[0,0.5],[1,0.5]];portConstraint=eastwest;whiteSpace=wrap;html=1;" vertex="1" parent="yHC9XpJHPRP4eeNgV91K-10">
          <mxGeometry y="26" width="160" height="94" as="geometry" />
        </mxCell>
        <mxCell id="yHC9XpJHPRP4eeNgV91K-12" value="" style="line;strokeWidth=1;fillColor=none;align=left;verticalAlign=middle;spacingTop=-1;spacingLeft=3;spacingRight=3;rotatable=0;labelPosition=right;points=[];portConstraint=eastwest;strokeColor=inherit;" vertex="1" parent="yHC9XpJHPRP4eeNgV91K-10">
          <mxGeometry y="120" width="160" height="8" as="geometry" />
        </mxCell>
        <mxCell id="yHC9XpJHPRP4eeNgV91K-43" style="edgeStyle=orthogonalEdgeStyle;rounded=0;orthogonalLoop=1;jettySize=auto;html=1;exitX=0.5;exitY=1;exitDx=0;exitDy=0;entryX=0;entryY=0.5;entryDx=0;entryDy=0;" edge="1" parent="1" source="yHC9XpJHPRP4eeNgV91K-14" target="yHC9XpJHPRP4eeNgV91K-23">
          <mxGeometry relative="1" as="geometry" />
        </mxCell>
        <mxCell id="yHC9XpJHPRP4eeNgV91K-14" value="ItemVenda" style="swimlane;fontStyle=1;align=center;verticalAlign=top;childLayout=stackLayout;horizontal=1;startSize=26;horizontalStack=0;resizeParent=1;resizeParentMax=0;resizeLast=0;collapsible=1;marginBottom=0;whiteSpace=wrap;html=1;" vertex="1" parent="1">
          <mxGeometry x="270" y="610" width="160" height="138" as="geometry" />
        </mxCell>
        <mxCell id="yHC9XpJHPRP4eeNgV91K-15" value="+produto:produto&lt;div&gt;+valorParcial:float&lt;/div&gt;&lt;div&gt;+quantidade:double&lt;/div&gt;&lt;div&gt;+observação:string&lt;/div&gt;&lt;div&gt;+usuario:usuario&lt;/div&gt;" style="text;strokeColor=none;fillColor=none;align=left;verticalAlign=top;spacingLeft=4;spacingRight=4;overflow=hidden;rotatable=0;points=[[0,0.5],[1,0.5]];portConstraint=eastwest;whiteSpace=wrap;html=1;" vertex="1" parent="yHC9XpJHPRP4eeNgV91K-14">
          <mxGeometry y="26" width="160" height="104" as="geometry" />
        </mxCell>
        <mxCell id="yHC9XpJHPRP4eeNgV91K-16" value="" style="line;strokeWidth=1;fillColor=none;align=left;verticalAlign=middle;spacingTop=-1;spacingLeft=3;spacingRight=3;rotatable=0;labelPosition=right;points=[];portConstraint=eastwest;strokeColor=inherit;" vertex="1" parent="yHC9XpJHPRP4eeNgV91K-14">
          <mxGeometry y="130" width="160" height="8" as="geometry" />
        </mxCell>
        <mxCell id="yHC9XpJHPRP4eeNgV91K-18" value="EstoqueEntrada" style="swimlane;fontStyle=1;align=center;verticalAlign=top;childLayout=stackLayout;horizontal=1;startSize=26;horizontalStack=0;resizeParent=1;resizeParentMax=0;resizeLast=0;collapsible=1;marginBottom=0;whiteSpace=wrap;html=1;" vertex="1" parent="1">
          <mxGeometry x="440" y="630" width="160" height="118" as="geometry" />
        </mxCell>
        <mxCell id="yHC9XpJHPRP4eeNgV91K-19" value="+produto:produto&lt;div&gt;+data:dataTime&lt;/div&gt;&lt;div&gt;+quantidadeEntrada:int&lt;/div&gt;&lt;div&gt;+valorPago:int&lt;/div&gt;&lt;div&gt;+usuario:usuario&lt;/div&gt;" style="text;strokeColor=none;fillColor=none;align=left;verticalAlign=top;spacingLeft=4;spacingRight=4;overflow=hidden;rotatable=0;points=[[0,0.5],[1,0.5]];portConstraint=eastwest;whiteSpace=wrap;html=1;" vertex="1" parent="yHC9XpJHPRP4eeNgV91K-18">
          <mxGeometry y="26" width="160" height="84" as="geometry" />
        </mxCell>
        <mxCell id="yHC9XpJHPRP4eeNgV91K-20" value="" style="line;strokeWidth=1;fillColor=none;align=left;verticalAlign=middle;spacingTop=-1;spacingLeft=3;spacingRight=3;rotatable=0;labelPosition=right;points=[];portConstraint=eastwest;strokeColor=inherit;" vertex="1" parent="yHC9XpJHPRP4eeNgV91K-18">
          <mxGeometry y="110" width="160" height="8" as="geometry" />
        </mxCell>
        <mxCell id="yHC9XpJHPRP4eeNgV91K-22" value="Usuario" style="swimlane;fontStyle=1;align=center;verticalAlign=top;childLayout=stackLayout;horizontal=1;startSize=26;horizontalStack=0;resizeParent=1;resizeParentMax=0;resizeLast=0;collapsible=1;marginBottom=0;whiteSpace=wrap;html=1;" vertex="1" parent="1">
          <mxGeometry x="414" y="835" width="160" height="108" as="geometry" />
        </mxCell>
        <mxCell id="yHC9XpJHPRP4eeNgV91K-23" value="+nome:string&lt;div&gt;+login:string&lt;/div&gt;&lt;div&gt;+senha:string&lt;/div&gt;&lt;div&gt;+tipo:tipoUsuario&lt;/div&gt;" style="text;strokeColor=none;fillColor=none;align=left;verticalAlign=top;spacingLeft=4;spacingRight=4;overflow=hidden;rotatable=0;points=[[0,0.5],[1,0.5]];portConstraint=eastwest;whiteSpace=wrap;html=1;" vertex="1" parent="yHC9XpJHPRP4eeNgV91K-22">
          <mxGeometry y="26" width="160" height="74" as="geometry" />
        </mxCell>
        <mxCell id="yHC9XpJHPRP4eeNgV91K-24" value="" style="line;strokeWidth=1;fillColor=none;align=left;verticalAlign=middle;spacingTop=-1;spacingLeft=3;spacingRight=3;rotatable=0;labelPosition=right;points=[];portConstraint=eastwest;strokeColor=inherit;" vertex="1" parent="yHC9XpJHPRP4eeNgV91K-22">
          <mxGeometry y="100" width="160" height="8" as="geometry" />
        </mxCell>
        <mxCell id="yHC9XpJHPRP4eeNgV91K-42" style="edgeStyle=orthogonalEdgeStyle;rounded=0;orthogonalLoop=1;jettySize=auto;html=1;exitX=0.75;exitY=1;exitDx=0;exitDy=0;entryX=0.5;entryY=0;entryDx=0;entryDy=0;" edge="1" parent="1" source="yHC9XpJHPRP4eeNgV91K-26" target="yHC9XpJHPRP4eeNgV91K-30">
          <mxGeometry relative="1" as="geometry" />
        </mxCell>
        <mxCell id="yHC9XpJHPRP4eeNgV91K-26" value="Conta" style="swimlane;fontStyle=1;align=center;verticalAlign=top;childLayout=stackLayout;horizontal=1;startSize=26;horizontalStack=0;resizeParent=1;resizeParentMax=0;resizeLast=0;collapsible=1;marginBottom=0;whiteSpace=wrap;html=1;" vertex="1" parent="1">
          <mxGeometry x="20" y="649" width="160" height="138" as="geometry" />
        </mxCell>
        <mxCell id="yHC9XpJHPRP4eeNgV91K-27" value="+cartao:cartao&lt;div&gt;+totalVenda:list&lt;/div&gt;&lt;div&gt;&lt;span style=&quot;background-color: transparent; color: light-dark(rgb(0, 0, 0), rgb(255, 255, 255));&quot;&gt;+dataVenda:float&lt;/span&gt;&lt;/div&gt;&lt;div&gt;+totalPago:dataTime&lt;/div&gt;&lt;div&gt;+cliente:cliente&lt;/div&gt;&lt;div&gt;+usuario:usuario&lt;/div&gt;" style="text;strokeColor=none;fillColor=none;align=left;verticalAlign=top;spacingLeft=4;spacingRight=4;overflow=hidden;rotatable=0;points=[[0,0.5],[1,0.5]];portConstraint=eastwest;whiteSpace=wrap;html=1;" vertex="1" parent="yHC9XpJHPRP4eeNgV91K-26">
          <mxGeometry y="26" width="160" height="104" as="geometry" />
        </mxCell>
        <mxCell id="yHC9XpJHPRP4eeNgV91K-28" value="" style="line;strokeWidth=1;fillColor=none;align=left;verticalAlign=middle;spacingTop=-1;spacingLeft=3;spacingRight=3;rotatable=0;labelPosition=right;points=[];portConstraint=eastwest;strokeColor=inherit;" vertex="1" parent="yHC9XpJHPRP4eeNgV91K-26">
          <mxGeometry y="130" width="160" height="8" as="geometry" />
        </mxCell>
        <mxCell id="yHC9XpJHPRP4eeNgV91K-30" value="Cartao" style="swimlane;fontStyle=1;align=center;verticalAlign=top;childLayout=stackLayout;horizontal=1;startSize=26;horizontalStack=0;resizeParent=1;resizeParentMax=0;resizeLast=0;collapsible=1;marginBottom=0;whiteSpace=wrap;html=1;" vertex="1" parent="1">
          <mxGeometry y="850" width="160" height="78" as="geometry" />
        </mxCell>
        <mxCell id="yHC9XpJHPRP4eeNgV91K-31" value="+codigoCartao:string&lt;div&gt;+disponivel:boolean&lt;/div&gt;" style="text;strokeColor=none;fillColor=none;align=left;verticalAlign=top;spacingLeft=4;spacingRight=4;overflow=hidden;rotatable=0;points=[[0,0.5],[1,0.5]];portConstraint=eastwest;whiteSpace=wrap;html=1;" vertex="1" parent="yHC9XpJHPRP4eeNgV91K-30">
          <mxGeometry y="26" width="160" height="44" as="geometry" />
        </mxCell>
        <mxCell id="yHC9XpJHPRP4eeNgV91K-32" value="" style="line;strokeWidth=1;fillColor=none;align=left;verticalAlign=middle;spacingTop=-1;spacingLeft=3;spacingRight=3;rotatable=0;labelPosition=right;points=[];portConstraint=eastwest;strokeColor=inherit;" vertex="1" parent="yHC9XpJHPRP4eeNgV91K-30">
          <mxGeometry y="70" width="160" height="8" as="geometry" />
        </mxCell>
        <mxCell id="yHC9XpJHPRP4eeNgV91K-41" style="edgeStyle=orthogonalEdgeStyle;rounded=0;orthogonalLoop=1;jettySize=auto;html=1;exitX=0.5;exitY=1;exitDx=0;exitDy=0;entryX=0.25;entryY=0;entryDx=0;entryDy=0;" edge="1" parent="1" source="yHC9XpJHPRP4eeNgV91K-34" target="yHC9XpJHPRP4eeNgV91K-26">
          <mxGeometry relative="1" as="geometry" />
        </mxCell>
        <mxCell id="yHC9XpJHPRP4eeNgV91K-62" style="edgeStyle=orthogonalEdgeStyle;rounded=0;orthogonalLoop=1;jettySize=auto;html=1;exitX=0.25;exitY=1;exitDx=0;exitDy=0;entryX=0.5;entryY=0;entryDx=0;entryDy=0;" edge="1" parent="1" source="yHC9XpJHPRP4eeNgV91K-34" target="yHC9XpJHPRP4eeNgV91K-58">
          <mxGeometry relative="1" as="geometry" />
        </mxCell>
        <mxCell id="yHC9XpJHPRP4eeNgV91K-34" value="Cliente" style="swimlane;fontStyle=1;align=center;verticalAlign=top;childLayout=stackLayout;horizontal=1;startSize=26;horizontalStack=0;resizeParent=1;resizeParentMax=0;resizeLast=0;collapsible=1;marginBottom=0;whiteSpace=wrap;html=1;" vertex="1" parent="1">
          <mxGeometry x="-90" y="450" width="190" height="118" as="geometry" />
        </mxCell>
        <mxCell id="yHC9XpJHPRP4eeNgV91K-35" value="+nome:string&lt;div&gt;+numeroDocumento:string&lt;/div&gt;&lt;div&gt;+tipoDocumento:tipoDocumento&lt;/div&gt;&lt;div&gt;+dataNascimento:data&lt;/div&gt;&lt;div&gt;+email:string&lt;/div&gt;" style="text;strokeColor=none;fillColor=none;align=left;verticalAlign=top;spacingLeft=4;spacingRight=4;overflow=hidden;rotatable=0;points=[[0,0.5],[1,0.5]];portConstraint=eastwest;whiteSpace=wrap;html=1;" vertex="1" parent="yHC9XpJHPRP4eeNgV91K-34">
          <mxGeometry y="26" width="190" height="84" as="geometry" />
        </mxCell>
        <mxCell id="yHC9XpJHPRP4eeNgV91K-36" value="" style="line;strokeWidth=1;fillColor=none;align=left;verticalAlign=middle;spacingTop=-1;spacingLeft=3;spacingRight=3;rotatable=0;labelPosition=right;points=[];portConstraint=eastwest;strokeColor=inherit;" vertex="1" parent="yHC9XpJHPRP4eeNgV91K-34">
          <mxGeometry y="110" width="190" height="8" as="geometry" />
        </mxCell>
        <mxCell id="yHC9XpJHPRP4eeNgV91K-48" value="Categoria" style="swimlane;fontStyle=1;align=center;verticalAlign=top;childLayout=stackLayout;horizontal=1;startSize=26;horizontalStack=0;resizeParent=1;resizeParentMax=0;resizeLast=0;collapsible=1;marginBottom=0;whiteSpace=wrap;html=1;" vertex="1" parent="1">
          <mxGeometry x="150" y="410" width="160" height="68" as="geometry" />
        </mxCell>
        <mxCell id="yHC9XpJHPRP4eeNgV91K-49" value="+nomeCategoria:string" style="text;strokeColor=none;fillColor=none;align=left;verticalAlign=top;spacingLeft=4;spacingRight=4;overflow=hidden;rotatable=0;points=[[0,0.5],[1,0.5]];portConstraint=eastwest;whiteSpace=wrap;html=1;" vertex="1" parent="yHC9XpJHPRP4eeNgV91K-48">
          <mxGeometry y="26" width="160" height="34" as="geometry" />
        </mxCell>
        <mxCell id="yHC9XpJHPRP4eeNgV91K-50" value="" style="line;strokeWidth=1;fillColor=none;align=left;verticalAlign=middle;spacingTop=-1;spacingLeft=3;spacingRight=3;rotatable=0;labelPosition=right;points=[];portConstraint=eastwest;strokeColor=inherit;" vertex="1" parent="yHC9XpJHPRP4eeNgV91K-48">
          <mxGeometry y="60" width="160" height="8" as="geometry" />
        </mxCell>
        <mxCell id="yHC9XpJHPRP4eeNgV91K-52" value="TipoDeUnidade" style="swimlane;fontStyle=1;align=center;verticalAlign=top;childLayout=stackLayout;horizontal=1;startSize=26;horizontalStack=0;resizeParent=1;resizeParentMax=0;resizeLast=0;collapsible=1;marginBottom=0;whiteSpace=wrap;html=1;" vertex="1" parent="1">
          <mxGeometry x="120" y="525" width="160" height="60" as="geometry" />
        </mxCell>
        <mxCell id="yHC9XpJHPRP4eeNgV91K-53" value="+nome:string" style="text;strokeColor=none;fillColor=none;align=left;verticalAlign=top;spacingLeft=4;spacingRight=4;overflow=hidden;rotatable=0;points=[[0,0.5],[1,0.5]];portConstraint=eastwest;whiteSpace=wrap;html=1;" vertex="1" parent="yHC9XpJHPRP4eeNgV91K-52">
          <mxGeometry y="26" width="160" height="26" as="geometry" />
        </mxCell>
        <mxCell id="yHC9XpJHPRP4eeNgV91K-54" value="" style="line;strokeWidth=1;fillColor=none;align=left;verticalAlign=middle;spacingTop=-1;spacingLeft=3;spacingRight=3;rotatable=0;labelPosition=right;points=[];portConstraint=eastwest;strokeColor=inherit;" vertex="1" parent="yHC9XpJHPRP4eeNgV91K-52">
          <mxGeometry y="52" width="160" height="8" as="geometry" />
        </mxCell>
        <mxCell id="yHC9XpJHPRP4eeNgV91K-58" value="TipoDeDocumento" style="swimlane;fontStyle=1;align=center;verticalAlign=top;childLayout=stackLayout;horizontal=1;startSize=26;horizontalStack=0;resizeParent=1;resizeParentMax=0;resizeLast=0;collapsible=1;marginBottom=0;whiteSpace=wrap;html=1;" vertex="1" parent="1">
          <mxGeometry x="-170" y="610" width="160" height="60" as="geometry" />
        </mxCell>
        <mxCell id="yHC9XpJHPRP4eeNgV91K-59" value="+nomeTipo:string" style="text;strokeColor=none;fillColor=none;align=left;verticalAlign=top;spacingLeft=4;spacingRight=4;overflow=hidden;rotatable=0;points=[[0,0.5],[1,0.5]];portConstraint=eastwest;whiteSpace=wrap;html=1;" vertex="1" parent="yHC9XpJHPRP4eeNgV91K-58">
          <mxGeometry y="26" width="160" height="26" as="geometry" />
        </mxCell>
        <mxCell id="yHC9XpJHPRP4eeNgV91K-60" value="" style="line;strokeWidth=1;fillColor=none;align=left;verticalAlign=middle;spacingTop=-1;spacingLeft=3;spacingRight=3;rotatable=0;labelPosition=right;points=[];portConstraint=eastwest;strokeColor=inherit;" vertex="1" parent="yHC9XpJHPRP4eeNgV91K-58">
          <mxGeometry y="52" width="160" height="8" as="geometry" />
        </mxCell>
        <mxCell id="yHC9XpJHPRP4eeNgV91K-63" value="TipoDeUsuario" style="swimlane;fontStyle=1;align=center;verticalAlign=top;childLayout=stackLayout;horizontal=1;startSize=26;horizontalStack=0;resizeParent=1;resizeParentMax=0;resizeLast=0;collapsible=1;marginBottom=0;whiteSpace=wrap;html=1;" vertex="1" parent="1">
          <mxGeometry x="620" y="980" width="160" height="128" as="geometry" />
        </mxCell>
        <mxCell id="yHC9XpJHPRP4eeNgV91K-64" value="+tipo:string&lt;div&gt;+gerencia:boolean&lt;/div&gt;&lt;div&gt;+caixa:bolean&lt;/div&gt;&lt;div&gt;+controleCliente:boolean&lt;/div&gt;" style="text;strokeColor=none;fillColor=none;align=left;verticalAlign=top;spacingLeft=4;spacingRight=4;overflow=hidden;rotatable=0;points=[[0,0.5],[1,0.5]];portConstraint=eastwest;whiteSpace=wrap;html=1;" vertex="1" parent="yHC9XpJHPRP4eeNgV91K-63">
          <mxGeometry y="26" width="160" height="94" as="geometry" />
        </mxCell>
        <mxCell id="yHC9XpJHPRP4eeNgV91K-65" value="" style="line;strokeWidth=1;fillColor=none;align=left;verticalAlign=middle;spacingTop=-1;spacingLeft=3;spacingRight=3;rotatable=0;labelPosition=right;points=[];portConstraint=eastwest;strokeColor=inherit;" vertex="1" parent="yHC9XpJHPRP4eeNgV91K-63">
          <mxGeometry y="120" width="160" height="8" as="geometry" />
        </mxCell>
        <mxCell id="yHC9XpJHPRP4eeNgV91K-68" style="edgeStyle=orthogonalEdgeStyle;rounded=0;orthogonalLoop=1;jettySize=auto;html=1;exitX=1;exitY=0.5;exitDx=0;exitDy=0;entryX=0;entryY=0;entryDx=0;entryDy=0;" edge="1" parent="1" source="yHC9XpJHPRP4eeNgV91K-23" target="yHC9XpJHPRP4eeNgV91K-63">
          <mxGeometry relative="1" as="geometry" />
        </mxCell>
      </root>
    </mxGraphModel>
  </diagram>
</mxfile>
